HIERARCHY
ROOT Hips
{
	OFFSET 0.000000 0.000000 0.000000
	CHANNELS 6 Xposition Yposition Zposition Xrotation Yrotation Zrotation
	JOINT LeftUpLeg_virtual
	{
		OFFSET 0.000000 0.000000 0.000000
		CHANNELS 3 Xrotation Yrotation Zrotation
		JOINT LeftUpLeg
		{
			OFFSET 15.427100 -6.655098 0.678600
			CHANNELS 3 Xrotation Yrotation Zrotation
			JOINT LeftLeg
			{
				OFFSET 4.081073 -39.591068 13.024000
				CHANNELS 3 Xrotation Yrotation Zrotation
				JOINT LeftFoot
				{
					OFFSET -4.081074 -37.707932 -15.979700
					CHANNELS 3 Xrotation Yrotation Zrotation
					JOINT LeftToeBase
					{
						OFFSET 5.346399 -15.068900 20.645000
						CHANNELS 3 Xrotation Yrotation Zrotation
						JOINT LeftToe_End
						{
							OFFSET 2.754700 0.931300 11.300900
							CHANNELS 3 Xrotation Yrotation Zrotation
							End Site
							{
								OFFSET 0 0 0
							}
						}
					}
				}
			}
		}
	}
	JOINT RightUpLeg_virtual
	{
		OFFSET 0.000000 0.000000 0.000000
		CHANNELS 3 Xrotation Yrotation Zrotation
		JOINT RightUpLeg
		{
			OFFSET -15.569500 -6.655098 0.678600
			CHANNELS 3 Xrotation Yrotation Zrotation
			JOINT RightLeg
			{
				OFFSET -4.081825 -39.591045 13.023800
				CHANNELS 3 Xrotation Yrotation Zrotation
				JOINT RightFoot
				{
					OFFSET 4.081824 -37.707954 -15.979600
					CHANNELS 3 Xrotation Yrotation Zrotation
					JOINT RightToeBase
					{
						OFFSET -5.346400 -15.068900 20.645000
						CHANNELS 3 Xrotation Yrotation Zrotation
						JOINT RightToe_End
						{
							OFFSET -2.754700 0.931300 11.300900
							CHANNELS 3 Xrotation Yrotation Zrotation
							End Site
							{
								OFFSET 0 0 0
							}
						}
					}
				}
			}
		}
	}
	JOINT Spine_virtual
	{
		OFFSET 0.000000 0.000000 0.000000
		CHANNELS 3 Xrotation Yrotation Zrotation
		JOINT Spine
		{
			OFFSET -0.279200 12.230698 -2.892100
			CHANNELS 3 Xrotation Yrotation Zrotation
			JOINT Spine1
			{
				OFFSET -0.232667 10.192268 -1.242267
				CHANNELS 3 Xrotation Yrotation Zrotation
				JOINT Spine1_split
				{
					OFFSET -0.232667 10.192268 -1.242267
					CHANNELS 3 Xrotation Yrotation Zrotation
					JOINT Spine2
					{
						OFFSET -0.232667 10.192268 -1.242267
						CHANNELS 3 Xrotation Yrotation Zrotation
						JOINT Neck_virtual
						{
							OFFSET 0.000000 0.000000 0.000000
							CHANNELS 3 Xrotation Yrotation Zrotation
							JOINT Neck
							{
								OFFSET -0.418800 17.814194 8.416900
								CHANNELS 3 Xrotation Yrotation Zrotation
								JOINT Head
								{
									OFFSET 0.000000 7.031097 3.806800
									CHANNELS 3 Xrotation Yrotation Zrotation
									JOINT HeadTop_End
									{
										OFFSET 0.000000 24.646606 12.978600
										CHANNELS 3 Xrotation Yrotation Zrotation
										End Site
										{
											OFFSET 0 0 0
										}
									}
								}
							}
						}
						JOINT LeftShoulder_virtual
						{
							OFFSET 0.000000 0.000000 0.000000
							CHANNELS 3 Xrotation Yrotation Zrotation
							JOINT LeftShoulder
							{
								OFFSET 8.476499 7.247704 -3.868750
								CHANNELS 3 Xrotation Yrotation Zrotation
								JOINT LeftShoulder_split
								{
									OFFSET 8.476499 7.247704 -3.868750
									CHANNELS 3 Xrotation Yrotation Zrotation
									JOINT LeftArm
									{
										OFFSET 9.308998 -2.777710 0.208600
										CHANNELS 3 Xrotation Yrotation Zrotation
										JOINT LeftForeArm
										{
											OFFSET 29.972298 0.000000 0.000000
											CHANNELS 3 Xrotation Yrotation Zrotation
											JOINT LeftHand
											{
												OFFSET 26.026505 0.000000 0.000000
												CHANNELS 3 Xrotation Yrotation Zrotation
												End Site
												{
													OFFSET 0 0 0
												}
											}
										}
									}
								}
							}
						}
						JOINT RightShoulder_virtual
						{
							OFFSET 0.000000 0.000000 0.000000
							CHANNELS 3 Xrotation Yrotation Zrotation
							JOINT RightShoulder
							{
								OFFSET -7.570500 7.247704 -3.868750
								CHANNELS 3 Xrotation Yrotation Zrotation
								JOINT RightShoulder_split
								{
									OFFSET -7.570500 7.247704 -3.868750
									CHANNELS 3 Xrotation Yrotation Zrotation
									JOINT RightArm
									{
										OFFSET -9.308998 -2.777710 0.208500
										CHANNELS 3 Xrotation Yrotation Zrotation
										JOINT RightForeArm
										{
											OFFSET -29.972300 0.000000 0.000000
											CHANNELS 3 Xrotation Yrotation Zrotation
											JOINT RightHand
											{
												OFFSET -26.026505 0.000000 0.000000
												CHANNELS 3 Xrotation Yrotation Zrotation
												End Site
												{
													OFFSET 0 0 0
												}
											}
										}
									}
								}
							}
						}
					}
				}
			}
		}
	}
}
MOTION
Frames: 11
Frame Time: 0.03333333
19.150009 84.702614 -22.567940 0.000000 0.000000 0.000000 154.956515 -33.317629 160.837704 -14.094651 35.522014 25.393141 26.298363 16.432351 -3.234883 -14.951030 18.206223 -32.574951 -0.292644 -0.116868 -0.578223 0.000000 0.000000 0.000000 154.956515 -33.317629 160.837704 -60.895118 19.219787 10.948901 32.621571 -0.854162 2.604931 2.240694 -5.829421 6.084962 -0.000193 0.062157 0.008308 0.000000 0.000000 0.000000 154.956515 -33.317629 160.837704 36.547236 2.333738 8.775845 -9.492939 -3.544209 1.029324 0.000000 0.000000 0.000000 0.000000 0.000000 0.000000 -9.577646 -2.347690 1.862311 -11.165850 -2.963995 -6.604944 -22.263598 -8.924965 8.896443 0.000000 0.000000 0.000000 -9.577646 -2.347690 1.862311 5.989675 -11.042408 24.883364 0.000000 0.000000 0.000000 -67.569163 -3.871106 -45.262304 1.027734 -68.873954 3.943909 0.000000 0.000000 0.000000 -9.577646 -2.347690 1.862311 8.509950 9.073899 -5.156068 0.000000 0.000000 0.000000 -1.011973 0.755838 67.986187 14.251261 26.152552 -5.099706 0.000000 0.000000 0.000000 
19.043703 85.082657 -22.766975 0.000000 0.000000 0.000000 155.269078 -33.719514 161.200292 -12.805151 35.427525 24.532436 25.042624 16.699000 -3.086568 -14.363434 18.111054 -32.494106 -0.292628 -0.111899 -0.580101 0.000000 0.000000 0.000000 155.269078 -33.719514 161.200292 -59.796073 19.010006 10.456228 32.219898 -0.824016 2.577554 2.110708 -5.624113 5.864645 -0.000205 0.062440 0.008406 0.000000 0.000000 0.000000 155.269078 -33.719514 161.200292 36.402398 2.349231 8.777968 -9.351834 -3.570433 1.181058 0.000000 0.000000 0.000000 0.000000 0.000000 0.000000 -9.435590 -2.352111 2.017859 -12.226134 -7.455018 -5.693956 -19.356835 -12.917811 9.381451 0.000000 0.000000 0.000000 -9.435590 -2.352111 2.017859 5.744841 -10.522760 24.025841 0.000000 0.000000 0.000000 -67.510601 -3.722625 -45.267984 1.348472 -68.597639 4.202984 0.000000 0.000000 0.000000 -9.435590 -2.352111 2.017859 8.424598 8.375893 -5.507275 0.000000 0.000000 0.000000 -1.238772 1.267727 68.329165 13.833040 26.209121 -4.662806 0.000000 0.000000 0.000000 
18.953062 85.449715 -22.922310 0.000000 0.000000 0.000000 155.558815 -34.089710 161.619706 -11.517861 35.317023 23.578899 23.812744 16.982939 -2.936398 -13.794667 18.029768 -32.386366 -0.292634 -0.107022 -0.581948 0.000000 0.000000 0.000000 155.558815 -34.089710 161.619706 -58.731506 18.855478 9.689142 31.914240 -1.760247 2.509391 1.964016 -4.300218 5.873029 -0.000201 0.062660 0.008506 0.000000 0.000000 0.000000 155.558815 -34.089710 161.619706 36.291729 2.385860 8.815413 -9.262706 -3.564028 1.268314 0.000000 0.000000 0.000000 0.000000 0.000000 0.000000 -9.346581 -2.337920 2.102957 -12.950604 -10.349945 -5.301798 -17.398334 -15.412054 9.443614 0.000000 0.000000 0.000000 -9.346581 -2.337920 2.102957 5.455872 -10.276581 23.062286 0.000000 0.000000 0.000000 -67.354524 -3.637399 -45.228078 1.900065 -68.291681 4.723998 0.000000 0.000000 0.000000 -9.346581 -2.337920 2.102957 8.353437 7.968179 -5.710316 0.000000 0.000000 0.000000 -1.302537 1.649688 68.639242 13.413311 26.330427 -4.243893 0.000000 0.000000 0.000000 
18.880228 85.759583 -23.047211 0.000000 0.000000 0.000000 155.794252 -34.448534 162.069748 -10.310997 35.164676 22.597233 22.702809 17.233001 -2.804962 -13.288662 17.980336 -32.260711 -0.292627 -0.102088 -0.583799 0.000000 0.000000 0.000000 155.794252 -34.448534 162.069748 -57.859359 18.594196 9.151146 31.616355 -1.406368 2.502603 1.889742 -4.296498 5.619492 -0.000189 0.062857 0.008590 0.000000 0.000000 0.000000 155.794252 -34.448534 162.069748 36.113956 2.397712 8.847938 -9.194324 -3.531461 1.288037 0.000000 0.000000 0.000000 0.000000 0.000000 0.000000 -9.278985 -2.316858 2.114173 -13.362137 -11.789473 -5.218625 -16.449300 -16.600136 9.207538 0.000000 0.000000 0.000000 -9.278985 -2.316858 2.114173 5.194784 -10.040142 22.169452 0.000000 0.000000 0.000000 -67.199110 -3.604876 -45.225063 1.684093 -68.010051 4.498541 0.000000 0.000000 0.000000 -9.278985 -2.316858 2.114173 8.288730 7.822020 -5.816741 0.000000 0.000000 0.000000 -1.139742 2.025647 69.014205 13.262146 26.443726 -4.130504 0.000000 0.000000 0.000000 
18.811840 86.061768 -23.164810 0.000000 0.000000 0.000000 156.021492 -34.807498 162.525226 -9.121044 34.992077 21.618935 21.600704 17.486949 -2.676089 -12.786899 17.920774 -32.129927 -0.292655 -0.097191 -0.585568 0.000000 0.000000 0.000000 156.021492 -34.807498 162.525226 -57.013126 18.307098 8.600234 31.329104 -1.032327 2.497981 1.821114 -4.290559 5.363891 -0.000183 0.063102 0.008681 0.000000 0.000000 0.000000 156.021492 -34.807498 162.525226 35.921789 2.408899 8.883272 -9.131086 -3.494100 1.290940 0.000000 0.000000 0.000000 0.000000 0.000000 0.000000 -9.216726 -2.295464 2.103258 -13.710691 -12.922376 -5.199963 -15.720812 -17.514398 8.907221 0.000000 0.000000 0.000000 -9.216726 -2.295464 2.103258 5.002047 -9.799215 21.431667 0.000000 0.000000 0.000000 -67.066912 -3.635088 -45.270135 0.359715 -67.754828 3.211082 0.000000 0.000000 0.000000 -9.216726 -2.295464 2.103258 8.226011 7.725645 -5.903211 0.000000 0.000000 0.000000 -0.936619 2.400215 69.397543 13.165329 26.553530 -4.076874 0.000000 0.000000 0.000000 
18.786768 86.288086 -23.225281 0.000000 0.000000 0.000000 156.191482 -35.272989 162.875013 -8.269122 34.719095 20.889358 20.816940 17.623824 -2.582692 -12.421920 17.845109 -31.963468 -0.292629 -0.092292 -0.587284 0.000000 0.000000 0.000000 156.191482 -35.272989 162.875013 -56.294945 17.988886 8.028760 31.169941 -0.745739 2.498538 1.733859 -4.295897 5.168601 -0.000208 0.063335 0.008771 0.000000 0.000000 0.000000 156.191482 -35.272989 162.875013 35.707030 2.425462 8.930197 -9.078625 -3.449948 1.285269 0.000000 0.000000 0.000000 0.000000 0.000000 0.000000 -9.165497 -2.267735 2.086628 -13.923481 -13.692299 -5.236035 -15.212208 -18.132887 8.633812 0.000000 0.000000 0.000000 -9.165497 -2.267735 2.086628 4.896381 -9.616769 20.855486 0.000000 0.000000 0.000000 -66.996322 -3.637903 -45.309375 -0.643787 -67.470043 2.250289 0.000000 0.000000 0.000000 -9.165497 -2.267735 2.086628 8.175299 7.566683 -6.011348 0.000000 0.000000 0.000000 -0.702972 2.660152 69.713132 13.067235 26.598478 -3.990439 0.000000 0.000000 0.000000 
18.772087 86.494774 -23.268478 0.000000 0.000000 0.000000 156.350393 -35.759100 163.189625 -7.518209 34.415462 20.250860 20.128578 17.766382 -2.498920 -12.093567 17.734641 -31.807621 -0.292620 -0.087162 -0.588995 0.000000 0.000000 0.000000 156.350393 -35.759100 163.189625 -55.614330 17.638846 7.460985 31.031318 -0.469963 2.500311 1.649890 -4.302661 4.986349 -0.000190 0.063436 0.008880 0.000000 0.000000 0.000000 156.350393 -35.759100 163.189625 35.481880 2.449955 8.987255 -9.028141 -3.403981 1.276083 0.000000 0.000000 0.000000 0.000000 0.000000 0.000000 -9.116353 -2.238294 2.065827 -14.090242 -14.331473 -5.278096 -14.797933 -18.638353 8.360804 0.000000 0.000000 0.000000 -9.116353 -2.238294 2.065827 4.803844 -9.399123 20.403544 0.000000 0.000000 0.000000 -67.005016 -3.610791 -45.424313 -1.094391 -67.179050 1.841097 0.000000 0.000000 0.000000 -9.116353 -2.238294 2.065827 8.128397 7.386579 -6.133835 0.000000 0.000000 0.000000 -0.467365 2.884571 70.004193 12.963410 26.618709 -3.886936 0.000000 0.000000 0.000000 
18.771843 86.677277 -23.296303 0.000000 0.000000 0.000000 156.494742 -36.285844 163.480346 -6.868548 34.082610 19.691077 19.536083 17.881136 -2.429199 -11.803857 17.601978 -31.645400 -0.292633 -0.082405 -0.590692 0.000000 0.000000 0.000000 156.494742 -36.285844 163.480346 -54.974133 17.264688 6.878383 30.938482 -0.211361 2.506385 1.556721 -4.312026 4.817941 -0.000194 0.063604 0.008956 0.000000 0.000000 0.000000 156.494742 -36.285844 163.480346 35.252768 2.470696 9.037767 -8.981575 -3.356045 1.264877 0.000000 0.000000 0.000000 0.000000 0.000000 0.000000 -9.071149 -2.207457 2.041691 -14.223993 -14.888380 -5.340731 -14.424794 -19.081872 8.103022 0.000000 0.000000 0.000000 -9.071149 -2.207457 2.041691 4.710275 -9.188608 20.038177 0.000000 0.000000 0.000000 -66.938388 -3.607040 -45.487226 -2.442233 -66.884279 0.554965 0.000000 0.000000 0.000000 -9.071149 -2.207457 2.041691 8.083759 7.186938 -6.259617 0.000000 0.000000 0.000000 -0.227092 3.077053 70.279416 12.860018 26.622281 -3.775417 0.000000 0.000000 0.000000 
18.789953 86.830849 -23.310837 0.000000 0.000000 0.000000 156.622781 -36.873500 163.759427 -6.322312 33.722136 19.197478 19.044234 17.941917 -2.372667 -11.555757 17.452542 -31.466716 -0.292619 -0.077305 -0.592340 0.000000 0.000000 0.000000 156.622781 -36.873500 163.759427 -54.377264 16.872992 6.264850 30.917486 0.021899 2.514675 1.439323 -4.325110 4.663420 -0.000175 0.063721 0.009065 0.000000 0.000000 0.000000 156.622781 -36.873500 163.759427 35.024770 2.481262 9.060214 -8.941003 -3.306101 1.251622 0.000000 0.000000 0.000000 0.000000 0.000000 0.000000 -9.031602 -2.175400 2.015035 -14.341891 -15.411173 -5.437682 -14.036963 -19.514375 7.873408 0.000000 0.000000 0.000000 -9.031602 -2.175400 2.015035 4.646800 -9.132653 19.868400 0.000000 0.000000 0.000000 -66.706605 -3.658101 -45.411298 -4.463294 -66.563581 -1.368597 0.000000 0.000000 0.000000 -9.031602 -2.175400 2.015035 8.039761 6.969146 -6.377574 0.000000 0.000000 0.000000 0.020075 3.241552 70.547624 12.763370 26.617109 -3.665456 0.000000 0.000000 0.000000 
18.830246 86.951385 -23.314651 0.000000 0.000000 0.000000 156.733198 -37.542415 164.039834 -5.876458 33.335056 18.759176 18.655987 17.940641 -2.331811 -11.348652 17.274221 -31.268446 -0.292634 -0.072516 -0.593893 0.000000 0.000000 0.000000 156.733198 -37.542415 164.039834 -53.825094 16.472224 5.602099 30.992222 0.221563 2.525583 1.285153 -4.342783 4.523671 -0.000201 0.063790 0.009133 0.000000 0.000000 0.000000 156.733198 -37.542415 164.039834 34.803188 2.475416 9.032201 -8.908501 -3.254175 1.236024 0.000000 0.000000 0.000000 0.000000 0.000000 0.000000 -8.999515 -2.142351 1.986712 -14.463914 -15.947863 -5.582997 -13.577898 -19.986259 7.684404 0.000000 0.000000 0.000000 -8.999515 -2.142351 1.986712 4.581746 -9.143725 19.599726 0.000000 0.000000 0.000000 -66.566750 -3.751533 -45.441563 -5.212861 -66.371086 -2.080633 0.000000 0.000000 0.000000 -8.999515 -2.142351 1.986712 7.995116 6.734569 -6.476561 0.000000 0.000000 0.000000 0.275836 3.382034 70.817546 12.679637 26.611406 -3.565912 0.000000 0.000000 0.000000 
18.921780 86.995216 -23.294312 0.000000 0.000000 0.000000 156.799177 -38.401516 164.322522 -5.654430 32.892781 18.433376 18.515465 17.816267 -2.320714 -11.236523 17.010654 -31.038681 -0.292639 -0.067576 -0.595408 0.000000 0.000000 0.000000 156.799177 -38.401516 164.322522 -53.369087 16.089866 4.818503 31.294103 0.322886 2.548030 1.041898 -4.374623 4.428654 -0.000219 0.063852 0.009236 0.000000 0.000000 0.000000 156.799177 -38.401516 164.322522 34.597336 2.430969 8.884427 -8.894737 -3.197386 1.217783 0.000000 0.000000 0.000000 0.000000 0.000000 0.000000 -8.984766 -2.107392 1.954062 -14.597649 -16.532652 -5.842144 -12.937631 -20.564622 7.594550 0.000000 0.000000 0.000000 -8.984766 -2.107392 1.954062 4.467707 -9.041765 19.222847 0.000000 0.000000 0.000000 -66.531589 -3.920805 -45.733000 -5.290692 -66.356572 -2.186032 0.000000 0.000000 0.000000 -8.984766 -2.107392 1.954062 7.949743 6.462340 -6.528578 0.000000 0.000000 0.000000 0.558926 3.467258 71.092926 12.626953 26.607543 -3.493228 0.000000 0.000000 0.000000 
